<mxfile host="Electron" modified="2024-04-08T15:05:52.675Z" agent="Mozilla/5.0 (Windows NT 10.0; Win64; x64) AppleWebKit/537.36 (KHTML, like Gecko) draw.io/22.0.3 Chrome/114.0.5735.289 Electron/25.8.4 Safari/537.36" etag="DDx9D8i8Fm9-DRTw9Eo9" version="22.0.3" type="device">
  <diagram id="C5RBs43oDa-KdzZeNtuy" name="Page-1">
    <mxGraphModel dx="636" dy="614" grid="0" gridSize="10" guides="1" tooltips="1" connect="1" arrows="1" fold="1" page="0" pageScale="1" pageWidth="827" pageHeight="1169" math="0" shadow="0">
      <root>
        <mxCell id="WIyWlLk6GJQsqaUBKTNV-0" />
        <mxCell id="WIyWlLk6GJQsqaUBKTNV-1" parent="WIyWlLk6GJQsqaUBKTNV-0" />
        <mxCell id="GmbZ40fy-tXTkkmN-D42-10" style="edgeStyle=orthogonalEdgeStyle;rounded=0;orthogonalLoop=1;jettySize=auto;html=1;exitX=0.5;exitY=1;exitDx=0;exitDy=0;entryX=0.5;entryY=0;entryDx=0;entryDy=0;fontFamily=Helvetica;fontSize=12;fontColor=default;fontStyle=1;strokeWidth=1.5;" parent="WIyWlLk6GJQsqaUBKTNV-1" source="GmbZ40fy-tXTkkmN-D42-0" target="GmbZ40fy-tXTkkmN-D42-5" edge="1">
          <mxGeometry relative="1" as="geometry" />
        </mxCell>
        <mxCell id="GmbZ40fy-tXTkkmN-D42-11" style="edgeStyle=orthogonalEdgeStyle;rounded=0;orthogonalLoop=1;jettySize=auto;html=1;exitX=0.5;exitY=1;exitDx=0;exitDy=0;entryX=0.5;entryY=0;entryDx=0;entryDy=0;fontFamily=Helvetica;fontSize=12;fontColor=default;fontStyle=1;strokeWidth=1.5;" parent="WIyWlLk6GJQsqaUBKTNV-1" source="GmbZ40fy-tXTkkmN-D42-0" target="GmbZ40fy-tXTkkmN-D42-6" edge="1">
          <mxGeometry relative="1" as="geometry" />
        </mxCell>
        <mxCell id="GmbZ40fy-tXTkkmN-D42-0" value="웹 사이트 접속" style="rounded=1;whiteSpace=wrap;html=1;strokeWidth=1.5;shadow=1;fontStyle=1" parent="WIyWlLk6GJQsqaUBKTNV-1" vertex="1">
          <mxGeometry x="509.99" y="20" width="100.01" height="50" as="geometry" />
        </mxCell>
        <mxCell id="GmbZ40fy-tXTkkmN-D42-14" style="edgeStyle=orthogonalEdgeStyle;rounded=0;orthogonalLoop=1;jettySize=auto;html=1;exitX=0.5;exitY=1;exitDx=0;exitDy=0;entryX=0.5;entryY=0;entryDx=0;entryDy=0;fontFamily=Helvetica;fontSize=12;fontColor=default;fontStyle=1;strokeWidth=1.5;" parent="WIyWlLk6GJQsqaUBKTNV-1" source="GmbZ40fy-tXTkkmN-D42-5" target="GmbZ40fy-tXTkkmN-D42-13" edge="1">
          <mxGeometry relative="1" as="geometry" />
        </mxCell>
        <mxCell id="GmbZ40fy-tXTkkmN-D42-5" value="로그인" style="rounded=1;whiteSpace=wrap;html=1;strokeWidth=1.5;shadow=1;fontStyle=1" parent="WIyWlLk6GJQsqaUBKTNV-1" vertex="1">
          <mxGeometry x="570" y="110" width="100" height="50" as="geometry" />
        </mxCell>
        <mxCell id="GmbZ40fy-tXTkkmN-D42-23" style="edgeStyle=orthogonalEdgeStyle;rounded=0;orthogonalLoop=1;jettySize=auto;html=1;exitX=0.5;exitY=1;exitDx=0;exitDy=0;entryX=0.5;entryY=0;entryDx=0;entryDy=0;fontFamily=Helvetica;fontSize=12;fontColor=default;fontStyle=1;strokeWidth=1.5;" parent="WIyWlLk6GJQsqaUBKTNV-1" source="GmbZ40fy-tXTkkmN-D42-6" target="GmbZ40fy-tXTkkmN-D42-13" edge="1">
          <mxGeometry relative="1" as="geometry" />
        </mxCell>
        <mxCell id="GmbZ40fy-tXTkkmN-D42-6" value="회원가입" style="rounded=1;whiteSpace=wrap;html=1;strokeWidth=1.5;shadow=1;fontStyle=1" parent="WIyWlLk6GJQsqaUBKTNV-1" vertex="1">
          <mxGeometry x="450" y="110" width="100" height="50" as="geometry" />
        </mxCell>
        <mxCell id="GmbZ40fy-tXTkkmN-D42-20" style="edgeStyle=orthogonalEdgeStyle;rounded=0;orthogonalLoop=1;jettySize=auto;html=1;exitX=1;exitY=0.5;exitDx=0;exitDy=0;entryX=1;entryY=0.5;entryDx=0;entryDy=0;fontFamily=Helvetica;fontSize=12;fontColor=default;fontStyle=1;strokeWidth=1.5;" parent="WIyWlLk6GJQsqaUBKTNV-1" source="GmbZ40fy-tXTkkmN-D42-13" target="GmbZ40fy-tXTkkmN-D42-0" edge="1">
          <mxGeometry relative="1" as="geometry">
            <Array as="points">
              <mxPoint x="750" y="225" />
              <mxPoint x="750" y="45" />
            </Array>
          </mxGeometry>
        </mxCell>
        <mxCell id="GmbZ40fy-tXTkkmN-D42-28" style="edgeStyle=orthogonalEdgeStyle;rounded=0;orthogonalLoop=1;jettySize=auto;html=1;exitX=0.5;exitY=1;exitDx=0;exitDy=0;entryX=0.5;entryY=0;entryDx=0;entryDy=0;fontFamily=Helvetica;fontSize=12;fontColor=default;fontStyle=1;strokeWidth=1.5;" parent="WIyWlLk6GJQsqaUBKTNV-1" source="GmbZ40fy-tXTkkmN-D42-13" target="GmbZ40fy-tXTkkmN-D42-19" edge="1">
          <mxGeometry relative="1" as="geometry" />
        </mxCell>
        <mxCell id="rOvGNKanJQcWkXDejvit-2" style="edgeStyle=orthogonalEdgeStyle;shape=connector;rounded=0;orthogonalLoop=1;jettySize=auto;html=1;exitX=0.5;exitY=1;exitDx=0;exitDy=0;entryX=0.5;entryY=0;entryDx=0;entryDy=0;labelBackgroundColor=default;strokeColor=default;strokeWidth=1.5;align=center;verticalAlign=middle;fontFamily=Helvetica;fontSize=12;fontColor=default;endArrow=classic;" parent="WIyWlLk6GJQsqaUBKTNV-1" source="GmbZ40fy-tXTkkmN-D42-13" target="rOvGNKanJQcWkXDejvit-0" edge="1">
          <mxGeometry relative="1" as="geometry" />
        </mxCell>
        <mxCell id="DvkaHshCZyhJY0wfTXSS-2" style="edgeStyle=orthogonalEdgeStyle;shape=connector;rounded=0;orthogonalLoop=1;jettySize=auto;html=1;exitX=0.5;exitY=1;exitDx=0;exitDy=0;entryX=0.5;entryY=0;entryDx=0;entryDy=0;labelBackgroundColor=default;strokeColor=default;strokeWidth=1.5;align=center;verticalAlign=middle;fontFamily=Helvetica;fontSize=12;fontColor=default;endArrow=classic;" edge="1" parent="WIyWlLk6GJQsqaUBKTNV-1" source="GmbZ40fy-tXTkkmN-D42-13" target="DvkaHshCZyhJY0wfTXSS-0">
          <mxGeometry relative="1" as="geometry" />
        </mxCell>
        <mxCell id="GmbZ40fy-tXTkkmN-D42-13" value="메인 페이지" style="rounded=1;whiteSpace=wrap;html=1;strokeWidth=1.5;shadow=1;fontStyle=1" parent="WIyWlLk6GJQsqaUBKTNV-1" vertex="1">
          <mxGeometry x="509.99" y="200" width="100" height="50" as="geometry" />
        </mxCell>
        <mxCell id="GmbZ40fy-tXTkkmN-D42-55" style="edgeStyle=orthogonalEdgeStyle;rounded=0;orthogonalLoop=1;jettySize=auto;html=1;exitX=0.5;exitY=1;exitDx=0;exitDy=0;entryX=0.5;entryY=0;entryDx=0;entryDy=0;fontFamily=Helvetica;fontSize=12;fontColor=default;fontStyle=1;strokeWidth=1.5;" parent="WIyWlLk6GJQsqaUBKTNV-1" source="GmbZ40fy-tXTkkmN-D42-19" target="GmbZ40fy-tXTkkmN-D42-45" edge="1">
          <mxGeometry relative="1" as="geometry" />
        </mxCell>
        <mxCell id="GmbZ40fy-tXTkkmN-D42-56" style="edgeStyle=orthogonalEdgeStyle;rounded=0;orthogonalLoop=1;jettySize=auto;html=1;exitX=0.5;exitY=1;exitDx=0;exitDy=0;entryX=0.5;entryY=0;entryDx=0;entryDy=0;fontFamily=Helvetica;fontSize=12;fontColor=default;fontStyle=1;strokeWidth=1.5;" parent="WIyWlLk6GJQsqaUBKTNV-1" source="GmbZ40fy-tXTkkmN-D42-19" target="GmbZ40fy-tXTkkmN-D42-46" edge="1">
          <mxGeometry relative="1" as="geometry" />
        </mxCell>
        <mxCell id="GmbZ40fy-tXTkkmN-D42-64" style="edgeStyle=orthogonalEdgeStyle;rounded=0;orthogonalLoop=1;jettySize=auto;html=1;exitX=1;exitY=0.5;exitDx=0;exitDy=0;entryX=1;entryY=0.5;entryDx=0;entryDy=0;fontFamily=Helvetica;fontSize=12;fontColor=default;fontStyle=1;strokeWidth=1.5;" parent="WIyWlLk6GJQsqaUBKTNV-1" source="GmbZ40fy-tXTkkmN-D42-19" target="GmbZ40fy-tXTkkmN-D42-0" edge="1">
          <mxGeometry relative="1" as="geometry" />
        </mxCell>
        <mxCell id="GmbZ40fy-tXTkkmN-D42-19" value="마이페이지" style="rounded=1;whiteSpace=wrap;html=1;strokeWidth=1.5;shadow=1;fontStyle=1" parent="WIyWlLk6GJQsqaUBKTNV-1" vertex="1">
          <mxGeometry x="780" y="300" width="100" height="50" as="geometry" />
        </mxCell>
        <mxCell id="GmbZ40fy-tXTkkmN-D42-21" value="로그아웃" style="text;html=1;align=center;verticalAlign=middle;resizable=0;points=[];autosize=1;strokeColor=none;fillColor=none;fontSize=12;fontFamily=Helvetica;fontColor=default;fontStyle=1;strokeWidth=1.5;" parent="WIyWlLk6GJQsqaUBKTNV-1" vertex="1">
          <mxGeometry x="612" y="202" width="66" height="26" as="geometry" />
        </mxCell>
        <mxCell id="GmbZ40fy-tXTkkmN-D42-61" style="edgeStyle=orthogonalEdgeStyle;rounded=0;orthogonalLoop=1;jettySize=auto;html=1;exitX=0.5;exitY=1;exitDx=0;exitDy=0;entryX=0.5;entryY=0;entryDx=0;entryDy=0;fontFamily=Helvetica;fontSize=12;fontColor=default;fontStyle=1;strokeWidth=1.5;" parent="WIyWlLk6GJQsqaUBKTNV-1" source="GmbZ40fy-tXTkkmN-D42-45" target="GmbZ40fy-tXTkkmN-D42-59" edge="1">
          <mxGeometry relative="1" as="geometry" />
        </mxCell>
        <mxCell id="GmbZ40fy-tXTkkmN-D42-45" value="회원 정보" style="rounded=1;whiteSpace=wrap;html=1;strokeWidth=1.5;shadow=1;fontStyle=1" parent="WIyWlLk6GJQsqaUBKTNV-1" vertex="1">
          <mxGeometry x="840" y="390" width="100" height="50" as="geometry" />
        </mxCell>
        <mxCell id="DvkaHshCZyhJY0wfTXSS-4" style="edgeStyle=orthogonalEdgeStyle;shape=connector;rounded=0;orthogonalLoop=1;jettySize=auto;html=1;exitX=0;exitY=0.5;exitDx=0;exitDy=0;entryX=1;entryY=0.5;entryDx=0;entryDy=0;labelBackgroundColor=default;strokeColor=default;strokeWidth=1.5;align=center;verticalAlign=middle;fontFamily=Helvetica;fontSize=12;fontColor=default;endArrow=classic;" edge="1" parent="WIyWlLk6GJQsqaUBKTNV-1" source="GmbZ40fy-tXTkkmN-D42-46" target="GmbZ40fy-tXTkkmN-D42-74">
          <mxGeometry relative="1" as="geometry" />
        </mxCell>
        <mxCell id="DvkaHshCZyhJY0wfTXSS-6" style="edgeStyle=orthogonalEdgeStyle;shape=connector;rounded=0;orthogonalLoop=1;jettySize=auto;html=1;exitX=0.5;exitY=1;exitDx=0;exitDy=0;entryX=0.5;entryY=0;entryDx=0;entryDy=0;labelBackgroundColor=default;strokeColor=default;strokeWidth=1.5;align=center;verticalAlign=middle;fontFamily=Helvetica;fontSize=12;fontColor=default;endArrow=classic;" edge="1" parent="WIyWlLk6GJQsqaUBKTNV-1" source="GmbZ40fy-tXTkkmN-D42-46" target="DvkaHshCZyhJY0wfTXSS-5">
          <mxGeometry relative="1" as="geometry" />
        </mxCell>
        <mxCell id="GmbZ40fy-tXTkkmN-D42-46" value="참여 중인&lt;br&gt;챌린지" style="rounded=1;whiteSpace=wrap;html=1;strokeWidth=1.5;shadow=1;fontStyle=1" parent="WIyWlLk6GJQsqaUBKTNV-1" vertex="1">
          <mxGeometry x="720" y="390" width="100" height="50" as="geometry" />
        </mxCell>
        <mxCell id="GmbZ40fy-tXTkkmN-D42-75" style="edgeStyle=orthogonalEdgeStyle;rounded=0;orthogonalLoop=1;jettySize=auto;html=1;exitX=0.5;exitY=1;exitDx=0;exitDy=0;entryX=0.5;entryY=0;entryDx=0;entryDy=0;fontFamily=Helvetica;fontSize=12;fontColor=default;fontStyle=1;strokeWidth=1.5;" parent="WIyWlLk6GJQsqaUBKTNV-1" source="GmbZ40fy-tXTkkmN-D42-47" target="GmbZ40fy-tXTkkmN-D42-74" edge="1">
          <mxGeometry relative="1" as="geometry" />
        </mxCell>
        <mxCell id="GmbZ40fy-tXTkkmN-D42-47" value="챌린지 선택" style="rounded=1;whiteSpace=wrap;html=1;strokeWidth=1.5;shadow=1;fontStyle=1" parent="WIyWlLk6GJQsqaUBKTNV-1" vertex="1">
          <mxGeometry x="450" y="390" width="100" height="50" as="geometry" />
        </mxCell>
        <mxCell id="GmbZ40fy-tXTkkmN-D42-59" value="회원 정보 수정" style="rounded=1;whiteSpace=wrap;html=1;strokeWidth=1.5;shadow=1;fontStyle=1" parent="WIyWlLk6GJQsqaUBKTNV-1" vertex="1">
          <mxGeometry x="840" y="480" width="100" height="50" as="geometry" />
        </mxCell>
        <mxCell id="GmbZ40fy-tXTkkmN-D42-65" value="회원탈퇴" style="text;html=1;align=center;verticalAlign=middle;resizable=0;points=[];autosize=1;strokeColor=none;fillColor=none;fontSize=12;fontFamily=Helvetica;fontColor=default;fontStyle=1;strokeWidth=1.5;" parent="WIyWlLk6GJQsqaUBKTNV-1" vertex="1">
          <mxGeometry x="902" y="302" width="66" height="26" as="geometry" />
        </mxCell>
        <mxCell id="GmbZ40fy-tXTkkmN-D42-85" style="edgeStyle=orthogonalEdgeStyle;rounded=0;orthogonalLoop=1;jettySize=auto;html=1;exitX=0.5;exitY=1;exitDx=0;exitDy=0;entryX=0.5;entryY=0;entryDx=0;entryDy=0;fontFamily=Helvetica;fontSize=12;fontColor=default;fontStyle=1;strokeWidth=1.5;" parent="WIyWlLk6GJQsqaUBKTNV-1" source="GmbZ40fy-tXTkkmN-D42-74" edge="1">
          <mxGeometry relative="1" as="geometry">
            <mxPoint x="500.01" y="570" as="targetPoint" />
          </mxGeometry>
        </mxCell>
        <mxCell id="GmbZ40fy-tXTkkmN-D42-74" value="챌린지&lt;br&gt;채팅 입장" style="rounded=1;whiteSpace=wrap;html=1;strokeWidth=1.5;shadow=1;fontStyle=1" parent="WIyWlLk6GJQsqaUBKTNV-1" vertex="1">
          <mxGeometry x="450.01" y="480" width="100" height="50" as="geometry" />
        </mxCell>
        <mxCell id="rOvGNKanJQcWkXDejvit-0" value="챌린지 등록" style="rounded=1;whiteSpace=wrap;html=1;strokeWidth=1.5;shadow=1;fontStyle=1" parent="WIyWlLk6GJQsqaUBKTNV-1" vertex="1">
          <mxGeometry x="570" y="300" width="100" height="50" as="geometry" />
        </mxCell>
        <mxCell id="DvkaHshCZyhJY0wfTXSS-3" style="edgeStyle=orthogonalEdgeStyle;shape=connector;rounded=0;orthogonalLoop=1;jettySize=auto;html=1;exitX=0.5;exitY=1;exitDx=0;exitDy=0;entryX=0.5;entryY=0;entryDx=0;entryDy=0;labelBackgroundColor=default;strokeColor=default;strokeWidth=1.5;align=center;verticalAlign=middle;fontFamily=Helvetica;fontSize=12;fontColor=default;endArrow=classic;" edge="1" parent="WIyWlLk6GJQsqaUBKTNV-1" source="DvkaHshCZyhJY0wfTXSS-0" target="GmbZ40fy-tXTkkmN-D42-47">
          <mxGeometry relative="1" as="geometry" />
        </mxCell>
        <mxCell id="DvkaHshCZyhJY0wfTXSS-0" value="진행 중인&lt;br&gt;챌린지 조회" style="rounded=1;whiteSpace=wrap;html=1;strokeWidth=1.5;shadow=1;fontStyle=1" vertex="1" parent="WIyWlLk6GJQsqaUBKTNV-1">
          <mxGeometry x="450" y="300" width="100" height="50" as="geometry" />
        </mxCell>
        <mxCell id="DvkaHshCZyhJY0wfTXSS-5" value="챌린지 채팅&lt;br&gt;나가기" style="rounded=1;whiteSpace=wrap;html=1;strokeWidth=1.5;shadow=1;fontStyle=1" vertex="1" parent="WIyWlLk6GJQsqaUBKTNV-1">
          <mxGeometry x="720" y="480" width="100" height="50" as="geometry" />
        </mxCell>
        <mxCell id="DvkaHshCZyhJY0wfTXSS-7" value="채팅 입력 / 삭제" style="rounded=1;whiteSpace=wrap;html=1;strokeWidth=1.5;shadow=1;fontStyle=1" vertex="1" parent="WIyWlLk6GJQsqaUBKTNV-1">
          <mxGeometry x="450" y="570" width="100" height="50" as="geometry" />
        </mxCell>
      </root>
    </mxGraphModel>
  </diagram>
</mxfile>
